<svg id="Action_Record_Icon" data-name="Action/Record Icon" xmlns="http://www.w3.org/2000/svg" width="30.001" height="33" viewBox="0 0 30.001 33">
  <g id="Group_362" data-name="Group 362" transform="translate(0 0)">
    <g id="Union_6" data-name="Union 6" transform="translate(-912 -1335)" fill="#fff">
      <path d="M 933.0003051757812 1366.75 C 930.798583984375 1366.75 928.6930541992188 1365.808471679688 927.2236328125 1364.166748046875 L 926.8510131835938 1363.750366210938 L 926.292236328125 1363.750366210938 L 916.000244140625 1363.750366210938 C 914.4835815429688 1363.750366210938 913.2496948242188 1362.516479492188 913.2496948242188 1360.999877929688 L 913.2496948242188 1339.000244140625 C 913.2496948242188 1337.483642578125 914.4835815429688 1336.249755859375 916.000244140625 1336.249755859375 L 935.0001220703125 1336.249755859375 C 936.5162353515625 1336.249755859375 937.7496948242188 1337.483642578125 937.7496948242188 1339.000244140625 L 937.7496948242188 1352.291137695312 L 937.7496948242188 1352.849975585938 L 938.1661376953125 1353.22265625 C 939.8084106445312 1354.692260742188 940.7503051757812 1356.797973632812 940.7503051757812 1359 C 940.7503051757812 1363.273315429688 937.273681640625 1366.75 933.0003051757812 1366.75 Z" stroke="none"/>
      <path d="M 933.0003051757812 1365.5 C 936.5844116210938 1365.5 939.5003051757812 1362.584106445312 939.5003051757812 1359 C 939.5003051757812 1357.153076171875 938.710205078125 1355.386840820312 937.3325805664062 1354.154174804688 L 936.4996948242188 1353.408813476562 L 936.4996948242188 1339.000244140625 C 936.4996948242188 1338.1728515625 935.8269653320312 1337.499755859375 935.0001220703125 1337.499755859375 L 916.000244140625 1337.499755859375 C 915.1728515625 1337.499755859375 914.4996948242188 1338.1728515625 914.4996948242188 1339.000244140625 L 914.4996948242188 1360.999877929688 C 914.4996948242188 1361.827270507812 915.1728515625 1362.500366210938 916.000244140625 1362.500366210938 L 927.4097900390625 1362.500366210938 L 928.1550903320312 1363.3330078125 C 929.3876342773438 1364.710205078125 931.1536865234375 1365.5 933.0003051757812 1365.5 M 933.0003051757812 1368 C 930.3347778320312 1368 927.940185546875 1366.841552734375 926.292236328125 1365.000366210938 L 916.000244140625 1365.000366210938 C 913.7907104492188 1365.000366210938 911.9996948242188 1363.209350585938 911.9996948242188 1360.999877929688 L 911.9996948242188 1339.000244140625 C 911.9996948242188 1336.790771484375 913.7907104492188 1334.999755859375 916.000244140625 1334.999755859375 L 935.0001220703125 1334.999755859375 C 937.208740234375 1334.999755859375 938.9996948242188 1336.790771484375 938.9996948242188 1339.000244140625 L 938.9996948242188 1352.291137695312 C 940.84130859375 1353.939086914062 942.0003051757812 1356.334228515625 942.0003051757812 1359 C 942.0003051757812 1363.970703125 937.9710083007812 1368 933.0003051757812 1368 Z" stroke="none" fill="#0f466b"/>
    </g>
    <g id="Ellipse_42" data-name="Ellipse 42" transform="translate(12 15)" fill="none" stroke="#0f466b" stroke-width="2.5">
      <circle cx="9" cy="9" r="9" stroke="none"/>
      <circle cx="9" cy="9" r="7.75" fill="none"/>
    </g>
    <line id="Line_53" data-name="Line 53" x2="15" transform="translate(6 6)" fill="none" stroke="#0f466b" stroke-linecap="round" stroke-width="2.5"/>
    <line id="Line_59" data-name="Line 59" x2="15" transform="translate(6 11)" fill="none" stroke="#0f466b" stroke-linecap="round" stroke-width="2.5"/>
    <line id="Line_60" data-name="Line 60" x2="6" transform="translate(6 16)" fill="none" stroke="#0f466b" stroke-linecap="round" stroke-width="2.5"/>
    <line id="Line_57" data-name="Line 57" x2="7" transform="translate(17.5 24)" fill="none" stroke="#0f466b" stroke-linecap="round" stroke-width="2.5"/>
    <line id="Line_58" data-name="Line 58" y2="8" transform="translate(21 20)" fill="none" stroke="#0f466b" stroke-linecap="round" stroke-width="2.5"/>
  </g>
</svg>
