<svg xmlns="http://www.w3.org/2000/svg" width="35.002" height="30.381" viewBox="0 0 35.002 30.381">
  <g id="History_Icon" data-name="History Icon" transform="translate(2.121)">
    <g id="Group_361" data-name="Group 361" transform="translate(0 0)">
      <g id="Path_69" data-name="Path 69" transform="translate(2.5 30.381) rotate(-90)" fill="none" stroke-linecap="round" stroke-dasharray="83 201">
        <path d="M15.19,0A15.19,15.19,0,1,1,0,15.19,15.19,15.19,0,0,1,15.19,0Z" stroke="none"/>
        <path d="M 15.1904764175415 -3.814697265625e-06 C 15.39427280426025 -3.814697265625e-06 15.59694194793701 0.004003524780273438 15.79878902435303 0.01195526123046875 C 15.84392642974854 0.01373291015625 15.88911914825439 0.01571083068847656 15.93415451049805 0.01788330078125 C 19.83294105529785 0.2058525085449219 23.34624671936035 1.863666534423828 25.93176651000977 4.449186325073242 C 26.19602203369141 4.713441848754883 26.45069885253906 4.987518310546875 26.69499588012695 5.270576477050781 C 28.9917163848877 7.931982040405273 30.38095664978027 11.39923858642578 30.38095664978027 15.1904764175415 C 30.38095664978027 15.39427280426025 30.37694931030273 15.59694194793701 30.36899757385254 15.79878902435303 C 30.36721992492676 15.84392642974854 30.36524200439453 15.88911914825439 30.36306953430176 15.93415451049805 C 30.17510032653809 19.83294105529785 28.51728630065918 23.34624671936035 25.93176651000977 25.93176651000977 C 23.34624671936035 28.51728630065918 19.83294105529785 30.17510032653809 15.93415451049805 30.36306953430176 C 15.88911914825439 30.36524200439453 15.84392642974854 30.36721992492676 15.79878902435303 30.36899757385254 C 15.59694194793701 30.37694931030273 15.39427280426025 30.38095664978027 15.1904764175415 30.38095664978027 C 15.1904764175415 30.38095664978027 15.1904764175415 30.38095664978027 15.1904764175415 30.38095664978027 C 11.39923858642578 30.38095664978027 7.931982040405273 28.9917163848877 5.270576477050781 26.69499588012695 C 4.987518310546875 26.45069885253906 4.713441848754883 26.19602203369141 4.449186325073242 25.93176651000977 C 1.863666534423828 23.34624671936035 0.2058525085449219 19.83294105529785 0.01788330078125 15.93415451049805 C 0.01571083068847656 15.88911914825439 0.01373291015625 15.84392642974854 0.01195526123046875 15.79878902435303 C 0.004003524780273438 15.59694194793701 -3.814697265625e-06 15.39427280426025 -3.814697265625e-06 15.1904764175415 C -3.814697265625e-06 15.18638038635254 -1.9073486328125e-06 15.18249893188477 1.9073486328125e-06 15.1784029006958 C 1.9073486328125e-06 15.17718029022217 3.814697265625e-06 15.17630767822266 5.7220458984375e-06 15.17508506774902 C 7.62939453125e-06 15.17201328277588 9.5367431640625e-06 15.16949558258057 1.52587890625e-05 15.16642379760742 C 1.71661376953125e-05 15.16495704650879 2.09808349609375e-05 15.16328144073486 2.47955322265625e-05 15.16181564331055 C 2.86102294921875e-05 15.15925598144531 3.24249267578125e-05 15.15694427490234 3.814697265625e-05 15.15438556671143 C 4.1961669921875e-05 15.15267467498779 4.76837158203125e-05 15.15130424499512 5.14984130859375e-05 15.14959335327148 C 5.7220458984375e-05 15.14754676818848 6.4849853515625e-05 15.14439105987549 7.05718994140625e-05 15.14234447479248 C 7.62939453125e-05 15.14063358306885 8.20159912109375e-05 15.13901138305664 8.7738037109375e-05 15.13730144500732 C 9.5367431640625e-05 15.13525485992432 0.0001049041748046875 15.1323881149292 0.0001125335693359375 15.13034152984619 C 0.0001201629638671875 15.12863159179688 0.0001277923583984375 15.1268196105957 0.0001354217529296875 15.12510967254639 C 0.0001430511474609375 15.1230640411377 0.0001544952392578125 15.12042808532715 0.000164031982421875 15.11838245391846 C 0.0001735687255859375 15.11642837524414 0.0001811981201171875 15.11488246917725 0.00019073486328125 15.11292839050293 C 0.000202178955078125 15.11088275909424 0.000213623046875 15.10834980010986 0.000225067138671875 15.10630416870117 C 0.0002346038818359375 15.10459518432617 0.0002460479736328125 15.10268974304199 0.000255584716796875 15.10098075866699 C 0.000270843505859375 15.09842395782471 0.000278472900390625 15.09688854217529 0.0002956390380859375 15.09433174133301 C 0.0003070831298828125 15.09237861633301 0.0003185272216796875 15.09076309204102 0.0003299713134765625 15.08880996704102 C 0.00034332275390625 15.08676433563232 0.0003604888916015625 15.08433055877686 0.00037384033203125 15.08228492736816 C 0.0003871917724609375 15.08057594299316 0.000400543212890625 15.07862567901611 0.0004138946533203125 15.07691764831543 C 0.00042724609375 15.07487297058105 0.0004482269287109375 15.07225227355957 0.0004634857177734375 15.0702075958252 C 0.000476837158203125 15.0684986114502 0.000492095947265625 15.06655120849609 0.0005054473876953125 15.06484317779541 C 0.000522613525390625 15.06279850006104 0.0005435943603515625 15.06028461456299 0.000560760498046875 15.05824089050293 C 0.0005779266357421875 15.05628871917725 0.000591278076171875 15.05475044250488 0.0006084442138671875 15.0527982711792 C 0.0006256103515625 15.05075454711914 0.00064849853515625 15.04833126068115 0.000667572021484375 15.04628753662109 C 0.000682830810546875 15.04457950592041 0.0007038116455078125 15.04241847991943 0.000720977783203125 15.04071044921875 C 0.00074005126953125 15.03866672515869 0.0007648468017578125 15.03625583648682 0.0007839202880859375 15.03421306610107 C 0.000804901123046875 15.03226089477539 0.000820159912109375 15.0307674407959 0.0008392333984375 15.02881622314453 C 0.000865936279296875 15.0262622833252 0.0008831024169921875 15.02461624145508 0.000911712646484375 15.02206325531006 C 0.0009307861328125 15.02035617828369 0.000949859619140625 15.01853084564209 0.00096893310546875 15.01682376861572 C 0.0009975433349609375 15.01426982879639 0.001018524169921875 15.01246738433838 0.001049041748046875 15.00991439819336 C 0.001068115234375 15.00820732116699 0.001087188720703125 15.00657749176025 0.001108169555664062 15.00487041473389 C 0.001132965087890625 15.00282764434814 0.001165390014648438 15.00013828277588 0.001190185546875 14.99809551239014 C 0.001211166381835938 14.99638938903809 0.0012359619140625 14.994384765625 0.00125885009765625 14.99267768859863 C 0.001283645629882812 14.99063587188721 0.001317977905273438 14.98816585540771 0.001344680786132812 14.98612403869629 C 0.00136566162109375 14.98441791534424 0.001392364501953125 14.9824800491333 0.001415252685546875 14.98077392578125 C 0.00144195556640625 14.97873210906982 0.0014801025390625 14.97600936889648 0.001508712768554688 14.97396755218506 C 0.00153350830078125 14.97226142883301 0.001558303833007812 14.97044467926025 0.001583099365234375 14.9687385559082 C 0.001611709594726562 14.96669769287109 0.001659393310546875 14.96342468261719 0.001689910888671875 14.96138381958008 C 0.001710891723632812 14.95992088317871 0.001733779907226562 14.95833110809326 0.001756668090820312 14.95686912536621 C 0.001794815063476562 14.95431804656982 0.001836776733398438 14.95169258117676 0.001874923706054688 14.94914245605469 C 0.001897811889648438 14.94768047332764 0.001920700073242188 14.9462194442749 0.001943588256835938 14.94475841522217 C 0.002000808715820312 14.94118690490723 0.002056121826171875 14.93773555755615 0.002115249633789062 14.93416500091553 C 0.002122879028320312 14.93367862701416 0.00212860107421875 14.93336009979248 0.00213623046875 14.93287372589111 C 0.00220489501953125 14.92879295349121 0.002269744873046875 14.92500782012939 0.002340316772460938 14.92092800140381 C 0.0023651123046875 14.91946697235107 0.002386093139648438 14.91839218139648 0.002410888671875 14.91693115234375 C 0.00246429443359375 14.91387176513672 0.002498626708984375 14.91189575195312 0.00255584716796875 14.90883731842041 C 0.002582550048828125 14.90737628936768 0.002611160278320312 14.90585231781006 0.002637863159179688 14.90439128875732 C 0.002676010131835938 14.90235233306885 0.002737045288085938 14.89903259277344 0.002775192260742188 14.89699363708496 C 0.0028076171875 14.89528942108154 0.00284576416015625 14.89332103729248 0.002878189086914062 14.89161777496338 C 0.002918243408203125 14.8895788192749 0.00296783447265625 14.88701248168945 0.003007888793945312 14.88497447967529 C 0.003046035766601562 14.88302707672119 0.00307464599609375 14.88166332244873 0.00311279296875 14.87971687316895 C 0.003154754638671875 14.87767887115479 0.003208160400390625 14.87501430511475 0.003248214721679688 14.87297534942627 C 0.003284454345703125 14.87127208709717 0.003320693969726562 14.86954784393311 0.003355026245117188 14.86784553527832 C 0.003398895263671875 14.86580753326416 0.003458023071289062 14.86294841766357 0.00350189208984375 14.86091136932373 C 0.003538131713867188 14.85920810699463 0.003574371337890625 14.85747909545898 0.003612518310546875 14.8557767868042 C 0.003667831420898438 14.85322952270508 0.003702163696289062 14.85159206390381 0.003759384155273438 14.849045753479 C 0.003795623779296875 14.84734344482422 0.003839492797851562 14.84542846679688 0.003877639770507812 14.84372520446777 C 0.003934860229492188 14.84117889404297 0.003973007202148438 14.8394775390625 0.004030227661132812 14.8369312286377 C 0.004070281982421875 14.83522891998291 0.004108428955078125 14.83351707458496 0.004148483276367188 14.83181476593018 C 0.004207611083984375 14.82926845550537 0.004245758056640625 14.82760047912598 0.004306793212890625 14.82505512237549 C 0.004346847534179688 14.8233528137207 0.004390716552734375 14.82147312164307 0.00443267822265625 14.8197717666626 C 0.004480361938476562 14.81773471832275 0.004547119140625 14.81502819061279 0.004596710205078125 14.81299209594727 C 0.004636764526367188 14.8112907409668 0.0046844482421875 14.8093900680542 0.004726409912109375 14.80768871307373 C 0.0047760009765625 14.8056526184082 0.004835128784179688 14.80334186553955 0.004884719848632812 14.80130577087402 C 0.004934310913085938 14.79936122894287 0.00498199462890625 14.79748344421387 0.005031585693359375 14.79553890228271 C 0.005083084106445312 14.7935037612915 0.005138397216796875 14.79134654998779 0.005191802978515625 14.78931045532227 C 0.005235671997070312 14.7876091003418 0.0052947998046875 14.78535556793213 0.005338668823242188 14.78365421295166 C 0.005392074584960938 14.78161907196045 0.00545501708984375 14.77929782867432 0.0055084228515625 14.77726268768311 C 0.005559921264648438 14.77531814575195 0.005603790283203125 14.77371978759766 0.005655288696289062 14.77177619934082 C 0.005723953247070312 14.76923179626465 0.005765914916992188 14.76776313781738 0.005834579467773438 14.76521968841553 C 0.00588226318359375 14.76351928710938 0.005937576293945312 14.761474609375 0.005985260009765625 14.75977516174316 C 0.00604248046875 14.75774002075195 0.006107330322265625 14.7554349899292 0.00616455078125 14.7534008026123 C 0.006212234497070312 14.75170135498047 0.006275177001953125 14.74950885772705 0.006322860717773438 14.7478084564209 C 0.006381988525390625 14.745774269104 0.0064544677734375 14.74326419830322 0.006513595581054688 14.74123001098633 C 0.006563186645507812 14.73953056335449 0.006618499755859375 14.73763275146484 0.0066680908203125 14.73593330383301 C 0.006727218627929688 14.73390007019043 0.006809234619140625 14.73116302490234 0.006870269775390625 14.72912883758545 C 0.00691986083984375 14.72742938995361 0.006971359252929688 14.72571754455566 0.007022857666015625 14.72401905059814 C 0.007083892822265625 14.72198486328125 0.007165908813476562 14.71931076049805 0.007226943969726562 14.71727752685547 C 0.007287979125976562 14.71533584594727 0.00733184814453125 14.71386337280273 0.007390975952148438 14.71192169189453 C 0.00745391845703125 14.70988941192627 0.007524490356445312 14.70765686035156 0.007589340209960938 14.7056245803833 C 0.007650375366210938 14.7036828994751 0.007703781127929688 14.70195007324219 0.007764816284179688 14.70000839233398 C 0.007844924926757812 14.69746780395508 0.00789642333984375 14.69591522216797 0.007978439331054688 14.69337463378906 C 0.008039474487304688 14.69143295288086 0.008085250854492188 14.69002246856689 0.008148193359375 14.68808174133301 C 0.00824737548828125 14.68503284454346 0.008317947387695312 14.68290519714355 0.008419036865234375 14.67985725402832 C 0.008459091186523438 14.67864418029785 0.008497238159179688 14.67744159698486 0.00853729248046875 14.67622852325439 C 0.008672714233398438 14.67216491699219 0.008798599243164062 14.6684398651123 0.008935928344726562 14.66437721252441 C 0.008977890014648438 14.66316509246826 0.009029388427734375 14.66169166564941 0.009069442749023438 14.66047859191895 C 0.009174346923828125 14.65743160247803 0.009243011474609375 14.65543746948242 0.009349822998046875 14.65239143371582 C 0.00939178466796875 14.65117931365967 0.009456634521484375 14.64931488037109 0.009500503540039062 14.64810276031494 C 0.009588241577148438 14.64556407928467 0.009679794311523438 14.64295768737793 0.009771347045898438 14.64041900634766 C 0.009822845458984375 14.63896465301514 0.0098724365234375 14.63755989074707 0.00992584228515625 14.63610553741455 C 0.01001548767089844 14.63356781005859 0.01010894775390625 14.6309700012207 0.01020240783691406 14.62843227386475 C 0.01025390625 14.62697792053223 0.01032257080078125 14.62514495849609 0.0103759765625 14.62369060516357 C 0.01045036315917969 14.62166023254395 0.01056098937988281 14.61866760253906 0.0106353759765625 14.61663818359375 C 0.01069831848144531 14.61494159698486 0.010772705078125 14.61297416687012 0.01083564758300781 14.61127758026123 C 0.01091194152832031 14.60924816131592 0.01100349426269531 14.60679817199707 0.01108169555664062 14.60476875305176 C 0.0111541748046875 14.60283088684082 0.01121902465820312 14.60115909576416 0.01129341125488281 14.59922122955322 C 0.01136970520019531 14.59719181060791 0.01146125793457031 14.59482955932617 0.01153945922851562 14.59280109405518 C 0.01160430908203125 14.59110546112061 0.01168060302734375 14.58917903900146 0.01174736022949219 14.58748435974121 C 0.01184463500976562 14.58494758605957 0.01190757751464844 14.58333396911621 0.0120086669921875 14.58079814910889 C 0.01207542419433594 14.57910251617432 0.01215171813964844 14.57721328735352 0.01221847534179688 14.57551860809326 C 0.01231956481933594 14.57298278808594 0.01238059997558594 14.57144069671631 0.01248359680175781 14.5689058303833 C 0.01255989074707031 14.56696796417236 0.01261711120605469 14.56558036804199 0.0126953125 14.56364345550537 C 0.01277732849121094 14.56161499023438 0.01288604736328125 14.5589771270752 0.01296806335449219 14.55694961547852 C 0.01303863525390625 14.55525493621826 0.01311683654785156 14.55334663391113 0.01318740844726562 14.5516529083252 C 0.01327133178710938 14.5496244430542 0.01338005065917969 14.54701995849609 0.01346397399902344 14.54499244689941 C 0.0135345458984375 14.54329872131348 0.01360893249511719 14.54154014587402 0.01367950439453125 14.53984546661377 C 0.01376533508300781 14.53781795501709 0.01388359069824219 14.5350456237793 0.01396942138671875 14.53301906585693 C 0.01404190063476562 14.53132438659668 0.01411819458007812 14.52952194213867 0.014190673828125 14.52782821655273 C 0.01427841186523438 14.52580165863037 0.0143890380859375 14.52323055267334 0.01447677612304688 14.52120399475098 C 0.01455116271972656 14.51951026916504 0.01463508605957031 14.5175609588623 0.01470947265625 14.51586723327637 C 0.01482009887695312 14.51333427429199 0.01488304138183594 14.51190853118896 0.01499366760253906 14.50937652587891 C 0.01507949829101562 14.5074405670166 0.01515007019042969 14.50582122802734 0.01523780822753906 14.50388622283936 C 0.015350341796875 14.50135326385498 0.01541328430175781 14.49992752075195 0.01552772521972656 14.49739551544189 C 0.01560401916503906 14.49570274353027 0.01569175720214844 14.49375820159912 0.01576805114746094 14.4920654296875 C 0.01585960388183594 14.49003982543945 0.0159759521484375 14.48747539520264 0.01606941223144531 14.48544979095459 C 0.01615715026855469 14.48351573944092 0.01622390747070312 14.48202896118164 0.01631355285644531 14.48009490966797 C 0.01640701293945312 14.47806930541992 0.0165252685546875 14.4755277633667 0.01661872863769531 14.47350215911865 C 0.01669692993164062 14.47181034088135 0.01678276062011719 14.46995544433594 0.01686286926269531 14.46826267242432 C 0.01695823669433594 14.46623802185059 0.01709175109863281 14.46341896057129 0.01718711853027344 14.46139430999756 C 0.01725578308105469 14.4599437713623 0.01735496520996094 14.45783042907715 0.01742362976074219 14.45638084411621 C 0.01754379272460938 14.45384979248047 0.01767158508300781 14.45119857788086 0.01779365539550781 14.44866847991943 C 0.01786231994628906 14.4472188949585 0.01791763305664062 14.44608497619629 0.01798629760742188 14.44463539123535 C 0.01813316345214844 14.44159984588623 0.01823234558105469 14.43957901000977 0.01838111877441406 14.43654346466064 C 0.01844024658203125 14.43533515930176 0.01851463317871094 14.43380641937256 0.01857376098632812 14.43259906768799 C 0.0187225341796875 14.42956352233887 0.01886749267578125 14.4266357421875 0.01901817321777344 14.42360019683838 C 0.01906776428222656 14.42263412475586 0.01911163330078125 14.42172241210938 0.01915931701660156 14.42075634002686 C 0.01933670043945312 14.41721534729004 0.01952362060546875 14.41348743438721 0.01970291137695312 14.40994739532471 C 0.01977729797363281 14.40849876403809 0.01985549926757812 14.40694999694824 0.01992988586425781 14.40550136566162 C 0.02008438110351562 14.40246772766113 0.02021026611328125 14.39997005462646 0.02036666870117188 14.39693641662598 C 0.02044105529785156 14.39548778533936 0.02048492431640625 14.39467525482178 0.02055931091308594 14.39322662353516 C 0.02071571350097656 14.39019298553467 0.02082633972167969 14.38805961608887 0.02098464965820312 14.3850269317627 C 0.02106094360351562 14.38357830047607 0.02113151550292969 14.38225555419922 0.02120590209960938 14.38080787658691 C 0.02136611938476562 14.37777519226074 0.02145004272460938 14.37616729736328 0.02161026000976562 14.37313461303711 C 0.02169990539550781 14.37144660949707 0.02176856994628906 14.37016677856445 0.02185821533203125 14.36847877502441 C 0.02196693420410156 14.36645698547363 0.02213478088378906 14.36332702636719 0.02224349975585938 14.36130714416504 C 0.02231979370117188 14.35985946655273 0.02242279052734375 14.35799217224121 0.02250099182128906 14.35654449462891 C 0.02263641357421875 14.35401725769043 0.02275657653808594 14.35181617736816 0.02289390563964844 14.34929084777832 C 0.02298545837402344 14.34760093688965 0.02305984497070312 14.34625816345215 0.02315330505371094 14.34457015991211 C 0.02329063415527344 14.34204292297363 0.02339935302734375 14.34008407592773 0.02353858947753906 14.33755874633789 C 0.02363204956054688 14.33587074279785 0.02373123168945312 14.33408546447754 0.02382469177246094 14.3323974609375 C 0.02396583557128906 14.32987213134766 0.02405929565429688 14.32821083068848 0.024200439453125 14.32568550109863 C 0.02429580688476562 14.32399749755859 0.02440261840820312 14.32209968566895 0.02449798583984375 14.32041168212891 C 0.02464103698730469 14.31788635253906 0.02472305297851562 14.31640815734863 0.02486801147460938 14.31388282775879 C 0.02497673034667969 14.31195449829102 0.02506256103515625 14.31045532226562 0.02517318725585938 14.30852699279785 C 0.02531814575195312 14.30600166320801 0.02540779113769531 14.30443382263184 0.02555274963378906 14.30191040039062 C 0.0256500244140625 14.30022239685059 0.02575492858886719 14.29840850830078 0.02585411071777344 14.29672241210938 C 0.025970458984375 14.29470252990723 0.026123046875 14.29208564758301 0.02624130249023438 14.29006767272949 C 0.02634048461914062 14.28837966918945 0.02645111083984375 14.28648376464844 0.02655029296875 14.28479766845703 C 0.02666854858398438 14.28277778625488 0.02682304382324219 14.28017807006836 0.02694129943847656 14.27816009521484 C 0.02704238891601562 14.2764720916748 0.02714920043945312 14.2746524810791 0.02725028991699219 14.2729663848877 C 0.02737045288085938 14.27094841003418 0.02752876281738281 14.2683162689209 0.02764892578125 14.26629829406738 C 0.02775001525878906 14.26461219787598 0.02785873413085938 14.26280975341797 0.02795982360839844 14.26112365722656 C 0.02811241149902344 14.25860023498535 0.02822494506835938 14.25675582885742 0.02837753295898438 14.25423431396484 C 0.02848052978515625 14.25254821777344 0.02857589721679688 14.25099182128906 0.02867889404296875 14.24930572509766 C 0.02883148193359375 14.24678421020508 0.02894401550292969 14.2449779510498 0.0290985107421875 14.24245643615723 C 0.02920341491699219 14.24077224731445 0.02930641174316406 14.23907089233398 0.02941131591796875 14.23738479614258 C 0.02956771850585938 14.23486328125 0.02967643737792969 14.23311614990234 0.02983474731445312 14.23059463500977 C 0.0299530029296875 14.22866821289062 0.03003311157226562 14.22739410400391 0.03015327453613281 14.2254695892334 C 0.03028106689453125 14.22345352172852 0.03043746948242188 14.2209644317627 0.03056526184082031 14.21894836425781 C 0.030670166015625 14.21726417541504 0.03079795837402344 14.21524810791016 0.03090476989746094 14.21356391906738 C 0.03103256225585938 14.2115478515625 0.03119850158691406 14.20895004272461 0.03132820129394531 14.20693397521973 C 0.03143501281738281 14.20524978637695 0.03154945373535156 14.20344924926758 0.03165817260742188 14.2017650604248 C 0.03178787231445312 14.19974899291992 0.031982421875 14.19673919677734 0.03211212158203125 14.19472312927246 C 0.03222084045410156 14.19303894042969 0.03230857849121094 14.19168663024902 0.03241729736328125 14.19000244140625 C 0.03261375427246094 14.18698120117188 0.03275299072265625 14.18488311767578 0.03295135498046875 14.18185997009277 C 0.03302955627441406 14.1806583404541 0.03310775756835938 14.17944145202637 0.0331878662109375 14.1782398223877 C 0.03341865539550781 14.17471313476562 0.033599853515625 14.17198753356934 0.03383445739746094 14.1684627532959 C 0.03386688232421875 14.16798210144043 0.03393745422363281 14.16689300537109 0.03396987915039062 14.16641044616699 C 0.03450584411621094 14.15835380554199 0.03503036499023438 14.15058326721191 0.03557777404785156 14.14252853393555 C 0.03562736511230469 14.14180755615234 0.03568649291992188 14.14095878601074 0.035736083984375 14.14023780822754 C 0.03597640991210938 14.1367130279541 0.03614425659179688 14.13426399230957 0.03638648986816406 14.13074111938477 C 0.036468505859375 14.12953948974609 0.03657341003417969 14.12805557250977 0.03665542602539062 14.12685394287109 C 0.036865234375 14.12383460998535 0.03699493408203125 14.12192916870117 0.03720664978027344 14.11891174316406 C 0.0373077392578125 14.11746978759766 0.03741455078125 14.11593437194824 0.03751564025878906 14.11449241638184 C 0.03769111633300781 14.11197662353516 0.03785896301269531 14.10959243774414 0.03803634643554688 14.10707855224609 C 0.03813743591308594 14.10563659667969 0.03825759887695312 14.10393524169922 0.038360595703125 14.10249328613281 C 0.03853797912597656 14.09997940063477 0.03869438171386719 14.0977725982666 0.03887367248535156 14.09525680541992 C 0.03899383544921875 14.09357643127441 0.039093017578125 14.09218597412109 0.03921318054199219 14.09050559997559 C 0.03939247131347656 14.08798980712891 0.03954315185546875 14.08588409423828 0.03972434997558594 14.0833683013916 C 0.03982925415039062 14.08192825317383 0.03995132446289062 14.08022689819336 0.04005622863769531 14.07878684997559 C 0.0402374267578125 14.07627296447754 0.04040145874023438 14.07402038574219 0.04058456420898438 14.07150840759277 C 0.04070663452148438 14.06982803344727 0.040802001953125 14.06851196289062 0.04092597961425781 14.06683158874512 C 0.04110908508300781 14.06431770324707 0.04126739501953125 14.06216621398926 0.04145240783691406 14.05965232849121 C 0.04155731201171875 14.05821228027344 0.04169273376464844 14.0563793182373 0.04179954528808594 14.05493927001953 C 0.04198455810546875 14.05242729187012 0.0421295166015625 14.05048751831055 0.04231643676757812 14.04797554016113 C 0.04244041442871094 14.04629516601562 0.04257011413574219 14.04455184936523 0.04269599914550781 14.04287147521973 C 0.0428466796875 14.04086303710938 0.04305076599121094 14.03813171386719 0.04320144653320312 14.0361213684082 C 0.04332733154296875 14.03444290161133 0.04345321655273438 14.03278541564941 0.0435791015625 14.03110694885254 C 0.043731689453125 14.02909660339355 0.04393196105957031 14.02643775939941 0.04408454895019531 14.02442741394043 C 0.04423141479492188 14.02250862121582 0.04434776306152344 14.02097129821777 0.04449462890625 14.01905250549316 C 0.044647216796875 14.01704406738281 0.04482841491699219 14.01467704772949 0.04498291015625 14.01266860961914 C 0.04511070251464844 14.01099014282227 0.04526138305664062 14.00902366638184 0.04539108276367188 14.00734519958496 C 0.04554557800292969 14.00533676147461 0.04574775695800781 14.00271987915039 0.04590415954589844 14.00071334838867 C 0.04605293273925781 13.99879455566406 0.04615402221679688 13.99749565124512 0.04630279541015625 13.99557876586914 C 0.04649734497070312 13.99306869506836 0.04664230346679688 13.9912223815918 0.04683876037597656 13.98871231079102 C 0.04697036743164062 13.98703575134277 0.04708290100097656 13.98558616638184 0.04721450805664062 13.98390769958496 C 0.04741287231445312 13.98139762878418 0.04756927490234375 13.97940063476562 0.04776763916015625 13.97689056396484 C 0.047882080078125 13.9754524230957 0.04804420471191406 13.9733943939209 0.04815864562988281 13.97195625305176 C 0.04835700988769531 13.96944618225098 0.04851341247558594 13.96750068664551 0.04871368408203125 13.96499252319336 C 0.04884719848632812 13.96331596374512 0.04895591735839844 13.96195220947266 0.04908943176269531 13.96027565002441 C 0.04929161071777344 13.95776748657227 0.04947662353515625 13.95546913146973 0.04967880249023438 13.95296096801758 C 0.04979515075683594 13.95152282714844 0.0499267578125 13.94987106323242 0.05004310607910156 13.94843482971191 C 0.0502471923828125 13.94592666625977 0.05045890808105469 13.94332504272461 0.05066299438476562 13.94081687927246 C 0.05076026916503906 13.93961906433105 0.05089950561523438 13.93790817260742 0.05099678039550781 13.93671035766602 C 0.05124282836914062 13.93370056152344 0.05141448974609375 13.93161773681641 0.05166244506835938 13.92860984802246 C 0.05175971984863281 13.92741203308105 0.05187034606933594 13.92606735229492 0.05196952819824219 13.92486953735352 C 0.05221748352050781 13.92186164855957 0.05245780944824219 13.9189624786377 0.05270767211914062 13.91595458984375 C 0.05278778076171875 13.91499710083008 0.05286407470703125 13.91405487060547 0.05294418334960938 13.9130973815918 C 0.05394554138183594 13.90106773376465 0.05491256713867188 13.88960647583008 0.05594253540039062 13.87758445739746 C 0.05602455139160156 13.87662696838379 0.05614280700683594 13.87525367736816 0.05622482299804688 13.87429809570312 C 0.05648422241210938 13.87129211425781 0.05669975280761719 13.86877250671387 0.05695915222167969 13.86576652526855 C 0.0570831298828125 13.86433219909668 0.05717086791992188 13.86332511901855 0.05729484558105469 13.86189079284668 C 0.05751228332519531 13.8593864440918 0.05775833129882812 13.85655212402344 0.05797576904296875 13.85404968261719 C 0.05810165405273438 13.85261344909668 0.05823135375976562 13.85112190246582 0.05835723876953125 13.84968757629395 C 0.05857658386230469 13.84718322753906 0.0587921142578125 13.84473037719727 0.05901145935058594 13.84222793579102 C 0.0591583251953125 13.84055519104004 0.05927658081054688 13.83922576904297 0.05942344665527344 13.83755302429199 C 0.05964469909667969 13.83505058288574 0.05981254577636719 13.83314323425293 0.06003570556640625 13.83064079284668 C 0.06020545959472656 13.82872772216797 0.06032943725585938 13.82733535766602 0.06049919128417969 13.82542419433594 C 0.06067657470703125 13.82342147827148 0.06090927124023438 13.82081985473633 0.06108856201171875 13.81881713867188 C 0.06123733520507812 13.8171443939209 0.06139564514160156 13.81539916992188 0.06154632568359375 13.8137264251709 C 0.06176948547363281 13.81122398376465 0.06192398071289062 13.80951690673828 0.0621490478515625 13.80701446533203 C 0.06229972839355469 13.80534362792969 0.06244277954101562 13.80376625061035 0.06259536743164062 13.80209350585938 C 0.06282234191894531 13.79959297180176 0.06299972534179688 13.79762268066406 0.06322860717773438 13.79512214660645 C 0.06337928771972656 13.79344940185547 0.06351661682128906 13.79194641113281 0.06367111206054688 13.79027557373047 C 0.06385231018066406 13.78827476501465 0.06411552429199219 13.78541564941406 0.06429862976074219 13.78341484069824 C 0.064453125 13.78174209594727 0.0645904541015625 13.78024291992188 0.06474494934082031 13.7785701751709 C 0.06492805480957031 13.77657127380371 0.06521797180175781 13.7734375 0.06540298461914062 13.77143669128418 C 0.0655364990234375 13.77000427246094 0.06569290161132812 13.76831245422363 0.065826416015625 13.76688003540039 C 0.06601333618164062 13.7648811340332 0.06630897521972656 13.76168823242188 0.06649589538574219 13.75968933105469 C 0.06665229797363281 13.75801849365234 0.06677055358886719 13.75675964355469 0.06692695617675781 13.75508880615234 C 0.06716156005859375 13.75259017944336 0.06737899780273438 13.75028228759766 0.06761360168457031 13.74778366088867 C 0.0677490234375 13.74635124206543 0.06789970397949219 13.74475479125977 0.06803512573242188 13.74332237243652 C 0.06826972961425781 13.74082374572754 0.06847953796386719 13.73861885070801 0.06871604919433594 13.73612022399902 C 0.06887626647949219 13.73445129394531 0.06899833679199219 13.733154296875 0.06915855407714844 13.73148345947266 C 0.06939506530761719 13.72898483276367 0.06961250305175781 13.72671890258789 0.06985092163085938 13.72422218322754 C 0.06998825073242188 13.7227897644043 0.07014274597167969 13.72119140625 0.07028007507324219 13.71976089477539 C 0.07051849365234375 13.71726417541504 0.070770263671875 13.71465492248535 0.07101249694824219 13.71215629577637 C 0.07112693786621094 13.71096420288086 0.07128524780273438 13.70933151245117 0.07139968872070312 13.70813941955566 C 0.07164192199707031 13.70564270019531 0.07193946838378906 13.70258331298828 0.07218360900878906 13.70008659362793 C 0.07229804992675781 13.69889450073242 0.0724334716796875 13.69750595092773 0.07254981994628906 13.69631385803223 C 0.07279396057128906 13.69381904602051 0.07308197021484375 13.69087028503418 0.07332801818847656 13.68837356567383 C 0.07344436645507812 13.68718147277832 0.07358932495117188 13.68570899963379 0.07370567321777344 13.68451690673828 C 0.07400131225585938 13.68152236938477 0.07421112060546875 13.67940902709961 0.07450675964355469 13.67641639709473 C 0.07462501525878906 13.67522430419922 0.07475471496582031 13.67390823364258 0.07487297058105469 13.67271614074707 C 0.07521820068359375 13.66922378540039 0.07545089721679688 13.66688919067383 0.07579994201660156 13.66339492797852 C 0.07587242126464844 13.66268157958984 0.07596015930175781 13.66179466247559 0.07603073120117188 13.66107940673828 C 0.07642936706542969 13.6570873260498 0.07680702209472656 13.6533317565918 0.07720947265625 13.64934158325195 C 0.07723236083984375 13.64910316467285 0.07718849182128906 13.64954376220703 0.07721328735351562 13.64930534362793 C 0.07761383056640625 13.64531517028809 0.0780181884765625 13.64133071899414 0.07842254638671875 13.63734245300293 C 0.07842254638671875 13.63734245300293 0.07843017578125 13.63726425170898 0.07843017578125 13.63726425170898 C 0.07883644104003906 13.63327407836914 0.07922172546386719 13.62948989868164 0.07962989807128906 13.62550163269043 C 0.07967948913574219 13.62502670288086 0.07973289489746094 13.62450218200684 0.07978248596191406 13.62402534484863 C 0.08013916015625 13.62053489685059 0.08047676086425781 13.61725425720215 0.08083534240722656 13.6137638092041 C 0.08093452453613281 13.61281204223633 0.08103752136230469 13.61181259155273 0.08113670349121094 13.61086082458496 C 0.08144569396972656 13.60787010192871 0.08172988891601562 13.60511207580566 0.08204078674316406 13.60212135314941 C 0.08216476440429688 13.60093116760254 0.0823211669921875 13.59944343566895 0.08244514465332031 13.5982551574707 C 0.08270454406738281 13.59576225280762 0.08300209045410156 13.59290504455566 0.08326148986816406 13.59041404724121 C 0.08341217041015625 13.58898735046387 0.08354759216308594 13.58769035339355 0.08369827270507812 13.58626174926758 C 0.08395957946777344 13.58377075195312 0.08423805236816406 13.58111763000488 0.08450126647949219 13.57862663269043 C 0.08462715148925781 13.57743835449219 0.08481025695800781 13.57570838928223 0.08493614196777344 13.57451820373535 C 0.08519935607910156 13.57202911376953 0.085479736328125 13.56937026977539 0.08574485778808594 13.56688117980957 C 0.08589553833007812 13.56545448303223 0.08603858947753906 13.56411552429199 0.08619117736816406 13.56268882751465 C 0.086456298828125 13.5601978302002 0.08673095703125 13.55762100219727 0.08699798583984375 13.55513000488281 C 0.08715057373046875 13.55370330810547 0.08730506896972656 13.55227279663086 0.08745765686035156 13.55084609985352 C 0.08772468566894531 13.5483570098877 0.08797836303710938 13.54598426818848 0.08824729919433594 13.54349708557129 C 0.08840179443359375 13.54207038879395 0.08858489990234375 13.54037284851074 0.08873939514160156 13.5389461517334 C 0.08900833129882812 13.53645706176758 0.08925819396972656 13.53415489196777 0.08952713012695312 13.53166770935059 C 0.08968162536621094 13.53024101257324 0.08983993530273438 13.5288028717041 0.08999443054199219 13.52737808227539 C 0.09026527404785156 13.52488899230957 0.09053611755371094 13.52240180969238 0.09080886840820312 13.5199146270752 C 0.09096527099609375 13.51848793029785 0.09113311767578125 13.51694679260254 0.09128952026367188 13.5155200958252 C 0.09150886535644531 13.51353073120117 0.09187507629394531 13.51018905639648 0.09209442138671875 13.50819969177246 C 0.09225273132324219 13.50677299499512 0.0924224853515625 13.5052318572998 0.09257888793945312 13.50380706787109 C 0.09285354614257812 13.50131988525391 0.09311294555664062 13.49898147583008 0.09338951110839844 13.49649429321289 C 0.09354782104492188 13.49506950378418 0.09372520446777344 13.49346733093262 0.09388351440429688 13.49204254150391 C 0.09416007995605469 13.48955535888672 0.09443855285644531 13.4870662689209 0.09471511840820312 13.48457908630371 C 0.09487533569335938 13.483154296875 0.09501838684082031 13.48186492919922 0.09517860412597656 13.48044013977051 C 0.09545707702636719 13.47795486450195 0.09575080871582031 13.475341796875 0.09603118896484375 13.47285461425781 C 0.09619140625 13.47143173217773 0.09634780883789062 13.47003364562988 0.09650802612304688 13.46860885620117 C 0.09678840637207031 13.46612358093262 0.09707069396972656 13.4636344909668 0.09735298156738281 13.46114921569824 C 0.09751319885253906 13.45972442626953 0.09767341613769531 13.45832061767578 0.09783554077148438 13.45689582824707 C 0.09811782836914062 13.45441055297852 0.09839630126953125 13.45197105407715 0.0986785888671875 13.44948577880859 C 0.09884071350097656 13.44806289672852 0.0990142822265625 13.44655227661133 0.09917640686035156 13.44512748718262 C 0.09946060180664062 13.4426441192627 0.09982109069824219 13.43949890136719 0.1001071929931641 13.43701553344727 C 0.1002426147460938 13.43582916259766 0.1003551483154297 13.43484687805176 0.1004924774169922 13.43366050720215 C 0.1008358001708984 13.43067932128906 0.1011734008789062 13.42776298522949 0.1015186309814453 13.42478370666504 C 0.1016273498535156 13.4238338470459 0.1017417907714844 13.42284202575684 0.1018524169921875 13.42189407348633 C 0.1022548675537109 13.41841697692871 0.1026344299316406 13.4151611328125 0.1030387878417969 13.41168403625488 C 0.1030941009521484 13.41121101379395 0.1031455993652344 13.41076469421387 0.1032028198242188 13.41029167175293 C 0.1050567626953125 13.3944034576416 0.1069068908691406 13.37875556945801 0.1088104248046875 13.36288261413574 C 0.1088676452636719 13.36240768432617 0.1088523864746094 13.36253929138184 0.1089096069335938 13.36206436157227 C 0.1093845367431641 13.35809707641602 0.1097202301025391 13.35530853271484 0.110198974609375 13.35134124755859 C 0.1102848052978516 13.35062980651855 0.1104316711425781 13.34941673278809 0.1105175018310547 13.34870719909668 C 0.1109371185302734 13.34523582458496 0.1112098693847656 13.34299468994141 0.1116313934326172 13.33952331542969 C 0.1117458343505859 13.33857536315918 0.1118335723876953 13.33786201477051 0.1119480133056641 13.3369140625 C 0.1123104095458984 13.33393859863281 0.1126804351806641 13.33089828491211 0.1130447387695312 13.32792472839355 C 0.1131610870361328 13.32697677612305 0.1133327484130859 13.32556533813477 0.1134490966796875 13.32461929321289 C 0.1137523651123047 13.32214164733887 0.1141700744628906 13.3187370300293 0.1144752502441406 13.31625938415527 C 0.1146202087402344 13.31507682800293 0.1147823333740234 13.31376266479492 0.11492919921875 13.31258010864258 C 0.115234375 13.31010246276855 0.1155910491943359 13.30720520019531 0.1158981323242188 13.30472755432129 C 0.1160736083984375 13.30330848693848 0.1162281036376953 13.30206680297852 0.1164054870605469 13.30064582824707 C 0.1167125701904297 13.29817008972168 0.1170578002929688 13.2953929901123 0.1173667907714844 13.29291534423828 C 0.1175136566162109 13.29173278808594 0.1177043914794922 13.29020500183105 0.1178512573242188 13.28902053833008 C 0.1181621551513672 13.28654479980469 0.1185054779052734 13.28378868103027 0.1188163757324219 13.28131294250488 C 0.1189937591552734 13.27989387512207 0.1191577911376953 13.27860069274902 0.1193351745605469 13.27718162536621 C 0.1196460723876953 13.27470588684082 0.1199703216552734 13.27212905883789 0.1202831268310547 13.2696533203125 C 0.1204624176025391 13.26823425292969 0.1206436157226562 13.26679229736328 0.1208229064941406 13.26537322998047 C 0.1210746765136719 13.26339340209961 0.1214923858642578 13.26009368896484 0.1217441558837891 13.25811386108398 C 0.1219234466552734 13.2566967010498 0.1221275329589844 13.25509452819824 0.1223068237304688 13.25367546081543 C 0.1226215362548828 13.25120162963867 0.1229381561279297 13.24873542785645 0.1232528686523438 13.24626159667969 C 0.1234340667724609 13.24484252929688 0.1236114501953125 13.24346160888672 0.1237926483154297 13.24204254150391 C 0.1241092681884766 13.23956871032715 0.1244239807128906 13.23712348937988 0.1247406005859375 13.23464965820312 C 0.1249237060546875 13.23323059082031 0.1251125335693359 13.23176765441895 0.1252937316894531 13.23035049438477 C 0.1256122589111328 13.22787666320801 0.1259517669677734 13.22525405883789 0.1262722015380859 13.22278022766113 C 0.1264553070068359 13.22136306762695 0.1266078948974609 13.22018623352051 0.1267910003662109 13.21876907348633 C 0.1271114349365234 13.2162971496582 0.1274757385253906 13.21349334716797 0.1277980804443359 13.21102142333984 C 0.1279811859130859 13.20960426330566 0.1281185150146484 13.20854568481445 0.1283035278320312 13.20712852478027 C 0.1286258697509766 13.20465660095215 0.1290473937988281 13.2014331817627 0.1293716430664062 13.19896125793457 C 0.1294956207275391 13.1980152130127 0.1296977996826172 13.19647407531738 0.12982177734375 13.19552993774414 C 0.1301460266113281 13.19305801391602 0.1306056976318359 13.18955993652344 0.1309318542480469 13.18708992004395 C 0.1310863494873047 13.18590927124023 0.1311988830566406 13.1850528717041 0.1313552856445312 13.18387222290039 C 0.1317462921142578 13.180908203125 0.1321315765380859 13.17799186706543 0.1325244903564453 13.17502593994141 C 0.1326503753662109 13.17408180236816 0.1327724456787109 13.17315673828125 0.1328983306884766 13.17221260070801 C 0.1333560943603516 13.16875457763672 0.1338081359863281 13.16535949707031 0.1342697143554688 13.16190147399902 C 0.1343326568603516 13.16143035888672 0.134368896484375 13.16116333007812 0.1344318389892578 13.16069221496582 C 0.1365432739257812 13.14488410949707 0.1386585235595703 13.12921905517578 0.1408195495605469 13.11342620849609 C 0.1408195495605469 13.11342620849609 0.1408214569091797 13.11339950561523 0.1408214569091797 13.11339950561523 C 0.1413631439208984 13.10945129394531 0.1418704986572266 13.10574150085449 0.1424140930175781 13.10179328918457 C 0.1424789428710938 13.10132217407227 0.142547607421875 13.1008186340332 0.1426124572753906 13.1003475189209 C 0.1430892944335938 13.09689331054688 0.1435279846191406 13.09369850158691 0.1440067291259766 13.09024429321289 C 0.1441364288330078 13.08930206298828 0.1442394256591797 13.08856773376465 0.1443691253662109 13.08762550354004 C 0.1448478698730469 13.08417320251465 0.1451358795166016 13.08209228515625 0.1456165313720703 13.07863998413086 C 0.1457481384277344 13.07769775390625 0.1459064483642578 13.07655143737793 0.1460380554199219 13.07561111450195 C 0.1463813781738281 13.07314491271973 0.1468887329101562 13.06951141357422 0.1472339630126953 13.06704711914062 C 0.1473979949951172 13.06587028503418 0.1475563049316406 13.06473541259766 0.1477222442626953 13.06355857849121 C 0.1480674743652344 13.06109237670898 0.1485118865966797 13.05792236328125 0.1488590240478516 13.05545806884766 C 0.1490573883056641 13.05404472351074 0.1491775512695312 13.05319976806641 0.1493759155273438 13.05178642272949 C 0.1497230529785156 13.0493221282959 0.1501502990722656 13.04629707336426 0.1504993438720703 13.04383277893066 C 0.150665283203125 13.04265594482422 0.1508712768554688 13.04119873046875 0.1510391235351562 13.0400218963623 C 0.1513881683349609 13.03755950927734 0.1518020629882812 13.03463745117188 0.1521530151367188 13.03217315673828 C 0.1523532867431641 13.03076171875 0.1524848937988281 13.02984619140625 0.1526851654052734 13.02843284606934 C 0.153106689453125 13.02547836303711 0.1533908843994141 13.02348899841309 0.1538124084472656 13.02053451538086 C 0.1539802551269531 13.01935768127441 0.1541938781738281 13.01787185668945 0.1543617248535156 13.01669502258301 C 0.15478515625 13.01374053955078 0.1550636291503906 13.01180648803711 0.1554889678955078 13.00885200500488 C 0.1556911468505859 13.0074405670166 0.15582275390625 13.00652503967285 0.1560268402099609 13.00511360168457 C 0.1564521789550781 13.00215911865234 0.1567325592041016 13.00021553039551 0.1571598052978516 12.99726104736328 C 0.1573295593261719 12.99608612060547 0.1575489044189453 12.99456787109375 0.1577205657958984 12.9933910369873 C 0.1581478118896484 12.99043846130371 0.158447265625 12.98838043212891 0.1588764190673828 12.98542785644531 C 0.1590461730957031 12.9842529296875 0.159210205078125 12.98313140869141 0.1593818664550781 12.98195648193359 C 0.1597404479980469 12.97949600219727 0.1602153778076172 12.97623825073242 0.1605739593505859 12.97377777099609 C 0.1607475280761719 12.97260284423828 0.1609287261962891 12.97135162353516 0.161102294921875 12.97017669677734 C 0.1614627838134766 12.96771621704102 0.1619281768798828 12.96453666687012 0.1622905731201172 12.96207618713379 C 0.1624622344970703 12.96090126037598 0.1626224517822266 12.95981788635254 0.1627960205078125 12.95864295959473 C 0.1631565093994141 12.9561824798584 0.1636676788330078 12.95273208618164 0.1640300750732422 12.95027351379395 C 0.1641693115234375 12.94933319091797 0.1643733978271484 12.94794464111328 0.1645126342773438 12.94700622558594 C 0.1649494171142578 12.94405555725098 0.1653881072998047 12.94110107421875 0.1658267974853516 12.93815231323242 C 0.1659317016601562 12.93744659423828 0.1661128997802734 12.93621826171875 0.1662178039550781 12.93551445007324 C 0.1667308807373047 12.93207168579102 0.16705322265625 12.9299144744873 0.1675682067871094 12.92647361755371 C 0.1677074432373047 12.92553329467773 0.1678295135498047 12.92472076416016 0.16796875 12.92378234863281 C 0.1684837341308594 12.92034149169922 0.1689682006835938 12.91711044311523 0.1694850921630859 12.91367149353027 C 0.1695213317871094 12.91343688964844 0.1696529388427734 12.91255569458008 0.1696872711181641 12.91232109069824 C 0.1702785491943359 12.90839004516602 0.1708450317382812 12.90464019775391 0.1714382171630859 12.90070915222168 C 0.1714382171630859 12.90070915222168 0.1714420318603516 12.90069198608398 0.1714420318603516 12.90069198608398 C 0.1738185882568359 12.88496971130371 0.1761798858642578 12.86951065063477 0.1786060333251953 12.85380363464355 C 0.1786785125732422 12.85333442687988 0.1787910461425781 12.85260963439941 0.178863525390625 12.85214042663574 C 0.1793937683105469 12.84870529174805 0.1798877716064453 12.84551620483398 0.180419921875 12.84208106994629 C 0.1805286407470703 12.84137725830078 0.1805839538574219 12.84102630615234 0.1806926727294922 12.84032440185547 C 0.1812267303466797 12.83688926696777 0.1816635131835938 12.83407783508301 0.1821994781494141 12.83064460754395 C 0.1823101043701172 12.82994270324707 0.1825218200683594 12.82857704162598 0.1826324462890625 12.8278751373291 C 0.1830921173095703 12.82493209838867 0.1835613250732422 12.82192802429199 0.1840229034423828 12.81898498535156 C 0.1841697692871094 12.81804847717285 0.1843128204345703 12.81713676452637 0.1844596862792969 12.81620025634766 C 0.1849212646484375 12.81325721740723 0.1853752136230469 12.81037712097168 0.1858386993408203 12.80743408203125 C 0.1859855651855469 12.80649757385254 0.1861629486083984 12.80537223815918 0.1863117218017578 12.80443572998047 C 0.1867752075195312 12.80149269104004 0.1872196197509766 12.79868698120117 0.1876850128173828 12.79574584960938 C 0.1878337860107422 12.79480934143066 0.1880111694335938 12.7936897277832 0.1881599426269531 12.79275321960449 C 0.1886253356933594 12.7898120880127 0.1890220642089844 12.78732109069824 0.1894893646240234 12.78437995910645 C 0.1896762847900391 12.78321075439453 0.1898689270019531 12.78199768066406 0.1900558471679688 12.78082847595215 C 0.1905231475830078 12.77788734436035 0.1908817291259766 12.7756404876709 0.1913528442382812 12.77270126342773 C 0.1915397644042969 12.77153015136719 0.1917095184326172 12.77046585083008 0.1918983459472656 12.76929664611816 C 0.1923675537109375 12.766357421875 0.1927394866943359 12.7640438079834 0.1932125091552734 12.76110649108887 C 0.1933631896972656 12.76016998291016 0.1935997009277344 12.75869560241699 0.1937503814697266 12.75775909423828 C 0.1942234039306641 12.75481986999512 0.1946296691894531 12.75230407714844 0.1951026916503906 12.74936485290527 C 0.1952915191650391 12.74819564819336 0.1954307556152344 12.74734306335449 0.1956195831298828 12.74617385864258 C 0.1960945129394531 12.74323463439941 0.1964950561523438 12.74076652526855 0.1969718933105469 12.73782920837402 C 0.1971244812011719 12.73689460754395 0.1973476409912109 12.73550987243652 0.1975002288818359 12.73457527160645 C 0.1979770660400391 12.73163795471191 0.1984138488769531 12.72896194458008 0.1988925933837891 12.72602462768555 C 0.1990451812744141 12.72509002685547 0.1992263793945312 12.72398376464844 0.1993789672851562 12.72304916381836 C 0.1998577117919922 12.72011184692383 0.2003231048583984 12.7172679901123 0.2008056640625 12.71433258056641 C 0.200958251953125 12.71339797973633 0.2011146545410156 12.71244812011719 0.2012672424316406 12.71151351928711 C 0.2017498016357422 12.70857620239258 0.2022571563720703 12.70548820495605 0.2027416229248047 12.70255279541016 C 0.2028942108154297 12.70161819458008 0.2030220031738281 12.70083999633789 0.2031764984130859 12.69990539550781 C 0.2036609649658203 12.69696998596191 0.2041664123535156 12.69391822814941 0.20465087890625 12.69098281860352 C 0.2047672271728516 12.69028282165527 0.2049789428710938 12.68900108337402 0.2050952911376953 12.68829917907715 C 0.2056636810302734 12.68487548828125 0.2061653137207031 12.68185806274414 0.2067337036132812 12.67843437194824 C 0.2068500518798828 12.677734375 0.2068710327148438 12.67761611938477 0.2069873809814453 12.67691612243652 C 0.2115459442138672 12.64953422546387 0.2161102294921875 12.62258338928223 0.2208156585693359 12.59525299072266 C 0.220855712890625 12.59501838684082 0.2209091186523438 12.59470367431641 0.2209491729736328 12.5944709777832 C 0.2216224670410156 12.59056663513184 0.2221279144287109 12.5876350402832 0.2228031158447266 12.58373069763184 C 0.2228832244873047 12.58326530456543 0.2229728698730469 12.5827465057373 0.2230548858642578 12.58227920532227 C 0.2236442565917969 12.57886505126953 0.2242145538330078 12.57557678222656 0.2248077392578125 12.57216262817383 C 0.2249298095703125 12.57146263122559 0.2249965667724609 12.57107353210449 0.2251186370849609 12.57037544250488 C 0.2257118225097656 12.56696128845215 0.2262153625488281 12.56407737731934 0.2268104553222656 12.5606632232666 C 0.2269325256347656 12.55996513366699 0.2270736694335938 12.55915832519531 0.2271957397460938 12.5584602355957 C 0.2277069091796875 12.55553245544434 0.2282981872558594 12.55215072631836 0.2288112640380859 12.54922676086426 C 0.2289752960205078 12.54829406738281 0.2291145324707031 12.54749870300293 0.229278564453125 12.54656791687012 C 0.2297916412353516 12.54364204406738 0.2303409576416016 12.54051780700684 0.2308559417724609 12.53759384155273 C 0.2309780120849609 12.53689384460449 0.2311725616455078 12.53580093383789 0.2312946319580078 12.53510093688965 C 0.2318096160888672 12.53217697143555 0.2323741912841797 12.52898025512695 0.2328910827636719 12.52605628967285 C 0.2330570220947266 12.52512550354004 0.2332019805908203 12.52430534362793 0.2333660125732422 12.52337455749512 C 0.2338848114013672 12.52045059204102 0.2344112396240234 12.51747894287109 0.2349319458007812 12.51455497741699 C 0.2350959777832031 12.51362419128418 0.2352619171142578 12.5126953125 0.2354278564453125 12.51176452636719 C 0.2359485626220703 12.50884056091309 0.2364406585693359 12.50607872009277 0.2369613647460938 12.5031566619873 C 0.2371692657470703 12.50199317932129 0.2373123168945312 12.50119018554688 0.2375202178955078 12.50002861022949 C 0.2380428314208984 12.49710655212402 0.2385406494140625 12.49432563781738 0.2390651702880859 12.49140548706055 C 0.2392311096191406 12.49047470092773 0.2393817901611328 12.48963356018066 0.2395496368408203 12.48870277404785 C 0.2400741577148438 12.48578071594238 0.240631103515625 12.48268127441406 0.2411575317382812 12.47975921630859 C 0.2412834167480469 12.47906303405762 0.2415065765380859 12.47781753540039 0.2416324615478516 12.47711944580078 C 0.2421588897705078 12.47419929504395 0.2427253723144531 12.47107124328613 0.2432537078857422 12.4681510925293 C 0.2434215545654297 12.46722221374512 0.2435455322265625 12.46653747558594 0.24371337890625 12.46560859680176 C 0.2442417144775391 12.46268844604492 0.2448463439941406 12.45936012268066 0.2453765869140625 12.45643997192383 C 0.2455463409423828 12.45551109313965 0.2456340789794922 12.45502853393555 0.2458019256591797 12.45409965515137 C 0.2464218139648438 12.45069313049316 0.2469768524169922 12.44765090942383 0.2475986480712891 12.44424629211426 C 0.2476825714111328 12.44378280639648 0.2477855682373047 12.44321823120117 0.2478713989257812 12.4427547454834 C 0.2484931945800781 12.43935012817383 0.2491836547851562 12.43558120727539 0.2498073577880859 12.43217658996582 C 0.2498493194580078 12.43194389343262 0.2499370574951172 12.43147087097168 0.2499790191650391 12.43123817443848 C 0.2556896209716797 12.40011787414551 0.2614402770996094 12.36932563781738 0.2673397064208984 12.33827018737793 C 0.2673835754394531 12.33803939819336 0.2673912048339844 12.3380012512207 0.2674350738525391 12.3377685546875 C 0.2681713104248047 12.33388710021973 0.268768310546875 12.33075523376465 0.2695083618164062 12.32687568664551 C 0.2695960998535156 12.32641220092773 0.2696933746337891 12.32590675354004 0.2697811126708984 12.32544326782227 C 0.2704296112060547 12.32204818725586 0.2710361480712891 12.31887817382812 0.2716865539550781 12.31548309326172 C 0.271820068359375 12.31478881835938 0.2719345092773438 12.31418609619141 0.2720680236816406 12.31349182128906 C 0.2727184295654297 12.31009674072266 0.2732524871826172 12.30731773376465 0.2739048004150391 12.30392456054688 C 0.2740383148193359 12.30323028564453 0.2741584777832031 12.30261039733887 0.2742919921875 12.30191612243652 C 0.2748527526855469 12.29900550842285 0.2755527496337891 12.29537391662598 0.2761135101318359 12.29246520996094 C 0.2762489318847656 12.29177093505859 0.2764015197753906 12.29098320007324 0.2765350341796875 12.2902889251709 C 0.2770977020263672 12.28738021850586 0.2777976989746094 12.28376197814941 0.2783622741699219 12.28085327148438 C 0.2784519195556641 12.28039169311523 0.2786693572998047 12.27927398681641 0.2787590026855469 12.27881050109863 C 0.2793235778808594 12.27590370178223 0.2800216674804688 12.27230644226074 0.2805881500244141 12.26939964294434 C 0.2807235717773438 12.26870727539062 0.2808780670166016 12.26791381835938 0.2810134887695312 12.26722145080566 C 0.2815799713134766 12.26431465148926 0.2822895050048828 12.26067733764648 0.2828578948974609 12.25777053833008 C 0.2829933166503906 12.25707626342773 0.2831192016601562 12.25643348693848 0.2832565307617188 12.25573921203613 C 0.2838249206542969 12.25283432006836 0.2845287322998047 12.24924468994141 0.2850990295410156 12.24633979797363 C 0.2852344512939453 12.24564552307129 0.2853927612304688 12.24484634399414 0.2855281829833984 12.24415397644043 C 0.2860984802246094 12.24124908447266 0.2867946624755859 12.23772239685059 0.2873668670654297 12.23481750488281 C 0.2875041961669922 12.23412322998047 0.2876663208007812 12.23329544067383 0.2878036499023438 12.23260116577148 C 0.2883758544921875 12.22969818115234 0.2890663146972656 12.22620964050293 0.2896404266357422 12.22330665588379 C 0.2897777557373047 12.22261238098145 0.2899341583251953 12.22182464599609 0.2900714874267578 12.22113037109375 C 0.2906475067138672 12.21822738647461 0.2914066314697266 12.21439933776855 0.2919845581054688 12.21149635314941 C 0.2920761108398438 12.21103477478027 0.2922439575195312 12.21018600463867 0.2923374176025391 12.20972442626953 C 0.2930107116699219 12.20633697509766 0.2936897277832031 12.20293617248535 0.2943649291992188 12.19955062866211 C 0.2944564819335938 12.19908905029297 0.2945117950439453 12.19881057739258 0.2946052551269531 12.19834899902344 C 0.2953777313232422 12.19447898864746 0.2959861755371094 12.19144058227539 0.2967605590820312 12.18757247924805 C 0.2968082427978516 12.18734169006348 0.2968502044677734 12.18713188171387 0.2968959808349609 12.1869010925293 C 0.3038768768310547 12.1520881652832 0.3109226226806641 12.11759376525879 0.3181419372558594 12.0828685760498 C 0.3181896209716797 12.08263778686523 0.3182106018066406 12.08254051208496 0.3182582855224609 12.08231163024902 C 0.3190593719482422 12.07845306396484 0.3197040557861328 12.07535743713379 0.3205089569091797 12.07149887084961 C 0.3206062316894531 12.0710391998291 0.3206615447998047 12.07077026367188 0.3207588195800781 12.07031059265137 C 0.3214626312255859 12.06693458557129 0.3221778869628906 12.06351470947266 0.3228836059570312 12.06014060974121 C 0.323028564453125 12.05945014953613 0.3230934143066406 12.05914688110352 0.3232383728027344 12.05845642089844 C 0.3239459991455078 12.05508232116699 0.3245754241943359 12.05207443237305 0.3252849578857422 12.0487003326416 C 0.3253822326660156 12.04824066162109 0.3255672454833984 12.04736709594727 0.3256626129150391 12.04690551757812 C 0.3262710571289062 12.04401397705078 0.3270721435546875 12.04021453857422 0.3276824951171875 12.03732490539551 C 0.3278293609619141 12.03663444519043 0.3279762268066406 12.03593254089355 0.3281230926513672 12.03524208068848 C 0.3287334442138672 12.03235244750977 0.3295097351074219 12.02868270874023 0.3301219940185547 12.02579307556152 C 0.3302688598632812 12.02510261535645 0.3303794860839844 12.02457618713379 0.3305263519287109 12.02388763427734 C 0.3311386108398438 12.02099800109863 0.3319473266601562 12.0171947479248 0.3325614929199219 12.01430702209473 C 0.3326587677001953 12.01384544372559 0.3328666687011719 12.01286506652832 0.3329658508300781 12.01240539550781 C 0.3335800170898438 12.00951766967773 0.3344173431396484 12.00558853149414 0.3350353240966797 12.00270080566406 C 0.3351325988769531 12.00224113464355 0.3352851867675781 12.00152778625488 0.3353824615478516 12.00106811523438 C 0.3361034393310547 11.99769973754883 0.3367710113525391 11.99457740783691 0.337493896484375 11.99120903015137 C 0.3376407623291016 11.99051856994629 0.3376979827880859 11.99025726318359 0.3378448486328125 11.98956680297852 C 0.3385677337646484 11.98619842529297 0.3392620086669922 11.98296356201172 0.3399868011474609 11.9795970916748 C 0.3400859832763672 11.9791374206543 0.3401927947998047 11.97864151000977 0.3402919769287109 11.97818183898926 C 0.3410167694091797 11.97481346130371 0.3417415618896484 11.9714527130127 0.34246826171875 11.96808624267578 C 0.3425674438476562 11.96762657165527 0.3426666259765625 11.9671688079834 0.3427658081054688 11.96670913696289 C 0.343597412109375 11.96286010742188 0.3442134857177734 11.96001243591309 0.3450489044189453 11.9561653137207 C 0.3450984954833984 11.95593643188477 0.3451652526855469 11.95563125610352 0.34521484375 11.95540046691895 C 0.3460483551025391 11.9515552520752 0.3467559814453125 11.94830322265625 0.3475914001464844 11.94445610046387 C 0.3476428985595703 11.94422721862793 0.3476524353027344 11.94417953491211 0.3477020263671875 11.94395065307617 C 0.3560752868652344 11.90549468994141 0.3645362854003906 11.86734390258789 0.373199462890625 11.82899856567383 C 0.3732509613037109 11.82876968383789 0.3732566833496094 11.8287467956543 0.3733081817626953 11.82851791381836 C 0.3741741180419922 11.82468223571777 0.3749198913574219 11.82138633728027 0.3757896423339844 11.81755256652832 C 0.3758411407470703 11.81732368469238 0.3758792877197266 11.81715774536133 0.3759307861328125 11.81692886352539 C 0.376800537109375 11.81309509277344 0.3774528503417969 11.81022644042969 0.3783245086669922 11.80639457702637 C 0.3784275054931641 11.80593681335449 0.3785552978515625 11.80537986755371 0.3786582946777344 11.80492401123047 C 0.3794231414794922 11.80157089233398 0.380157470703125 11.79834175109863 0.3809223175048828 11.79499053955078 C 0.3810272216796875 11.79453277587891 0.3811721801757812 11.79389953613281 0.3812770843505859 11.79344367980957 C 0.3819332122802734 11.79056930541992 0.3828620910644531 11.78651237487793 0.3835201263427734 11.78363990783691 C 0.3836250305175781 11.78318214416504 0.3838005065917969 11.78241729736328 0.3839054107666016 11.78195953369141 C 0.3845634460449219 11.77908706665039 0.3854732513427734 11.77512168884277 0.3861331939697266 11.77224922180176 C 0.3862400054931641 11.77179336547852 0.3864364624023438 11.77093505859375 0.3865413665771484 11.77047729492188 C 0.3872032165527344 11.76760673522949 0.3880653381347656 11.76386451721191 0.3887271881103516 11.76099395751953 C 0.388885498046875 11.76030731201172 0.3890342712402344 11.75966453552246 0.3891925811767578 11.75897979736328 C 0.3898544311523438 11.7561092376709 0.3907737731933594 11.75213813781738 0.3914375305175781 11.749267578125 C 0.3915443420410156 11.74881172180176 0.3916645050048828 11.74828910827637 0.3917694091796875 11.74783325195312 C 0.3926563262939453 11.74400520324707 0.3932437896728516 11.74147796630859 0.3941326141357422 11.73765182495117 C 0.3942394256591797 11.73719596862793 0.3942852020263672 11.73699760437012 0.3943920135498047 11.73653984069824 C 0.3952808380126953 11.73271369934082 0.3960418701171875 11.72944831848145 0.3969345092773438 11.72562217712402 C 0.3969345092773438 11.72562217712402 0.3969879150390625 11.72538948059082 0.3969879150390625 11.72538948059082 C 0.3978805541992188 11.72156524658203 0.3987331390380859 11.71791458129883 0.3996295928955078 11.71409034729004 C 0.3996295928955078 11.71409034729004 0.3996601104736328 11.71395492553711 0.3996601104736328 11.71395492553711 C 0.4104042053222656 11.66807174682617 0.4213237762451172 11.62239837646484 0.4324798583984375 11.5766773223877 C 0.4324798583984375 11.5766773223877 0.4325523376464844 11.57638359069824 0.4325523376464844 11.57638359069824 C 0.4334812164306641 11.57257270812988 0.4343452453613281 11.56904602050781 0.4352779388427734 11.56523704528809 C 0.435333251953125 11.56501007080078 0.4352741241455078 11.56524658203125 0.4353294372558594 11.56501960754395 C 0.4362621307373047 11.56121063232422 0.4371204376220703 11.55771446228027 0.4380550384521484 11.55390739440918 C 0.4381122589111328 11.55367851257324 0.4381103515625 11.55368614196777 0.4381656646728516 11.55345916748047 C 0.4391021728515625 11.54965019226074 0.4398860931396484 11.54646301269531 0.4408245086669922 11.54265594482422 C 0.4409370422363281 11.54220199584961 0.4409065246582031 11.54232406616211 0.4410190582275391 11.54186820983887 C 0.4419574737548828 11.53806304931641 0.4426670074462891 11.53518295288086 0.4436092376708984 11.5313777923584 C 0.44366455078125 11.53115081787109 0.4438018798828125 11.53059768676758 0.4438591003417969 11.53037071228027 C 0.4447994232177734 11.52656555175781 0.4455032348632812 11.52372741699219 0.4464473724365234 11.51992225646973 C 0.446502685546875 11.51969528198242 0.4465961456298828 11.51931762695312 0.4466533660888672 11.51909065246582 C 0.4475975036621094 11.51528739929199 0.4483413696289062 11.51229476928711 0.4492874145507812 11.50849151611328 C 0.4493446350097656 11.50826454162598 0.4494171142578125 11.50797653198242 0.4494724273681641 11.50774955749512 C 0.4504203796386719 11.50394630432129 0.4512367248535156 11.50067329406738 0.4521865844726562 11.49687194824219 C 0.4521865844726562 11.49687194824219 0.4522705078125 11.49652862548828 0.4522705078125 11.49652862548828 C 0.4532203674316406 11.49272727966309 0.4540691375732422 11.48933601379395 0.4550228118896484 11.48553466796875 C 0.4550800323486328 11.48530769348145 0.4550724029541016 11.4853343963623 0.4551296234130859 11.485107421875 C 0.46942138671875 11.42809295654297 0.4839897155761719 11.37137985229492 0.4989223480224609 11.31462097167969 C 0.4989223480224609 11.31462097167969 0.4989433288574219 11.31454658508301 0.4989433288574219 11.31454658508301 C 0.49993896484375 11.31076240539551 0.5008583068847656 11.30727386474609 0.5018558502197266 11.30348968505859 C 0.5019168853759766 11.30326461791992 0.5019474029541016 11.30314826965332 0.5020065307617188 11.30292320251465 C 0.5030040740966797 11.29914093017578 0.5038681030273438 11.29587173461914 0.5048694610595703 11.29209136962891 C 0.5049304962158203 11.2918643951416 0.5049209594726562 11.29189872741699 0.5049800872802734 11.29167366027832 C 0.5059814453125 11.28789138793945 0.5068473815917969 11.28462409973145 0.5078525543212891 11.28084373474121 C 0.5079116821289062 11.28061866760254 0.5079383850097656 11.280517578125 0.5079994201660156 11.28029251098633 C 0.509002685546875 11.27651214599609 0.5099143981933594 11.27308464050293 0.5109214782714844 11.2693042755127 C 0.5109214782714844 11.2693042755127 0.5109653472900391 11.26914405822754 0.5109653472900391 11.26914405822754 C 0.5119724273681641 11.26536560058594 0.5129508972167969 11.26169776916504 0.5139598846435547 11.25791931152344 C 0.5139598846435547 11.25791931152344 0.51397705078125 11.25785255432129 0.51397705078125 11.25785255432129 C 1.166675567626953 8.815805435180664 2.412849426269531 6.615974426269531 4.088245391845703 4.822605133056641 C 4.653974533081055 4.220191955566406 5.60087776184082 4.188766479492188 6.205316543579102 4.753147125244141 C 6.810827255249023 5.318515777587891 6.843366622924805 6.267705917358398 6.277986526489258 6.87321662902832 C 4.164146423339844 9.137136459350586 2.999996185302734 12.09092712402344 2.999996185302734 15.1904764175415 C 2.999996185302734 18.44667625427246 4.268026351928711 21.50796508789062 6.570507049560547 23.81044578552246 C 8.87298583984375 26.1129264831543 11.93427658081055 27.38095664978027 15.1904764175415 27.38095664978027 C 18.44667625427246 27.38095664978027 21.50796508789062 26.1129264831543 23.81044578552246 23.81044578552246 C 26.1129264831543 21.50796508789062 27.38095664978027 18.44667625427246 27.38095664978027 15.1904764175415 C 27.38095664978027 11.93427658081055 26.1129264831543 8.87298583984375 23.81044578552246 6.570507049560547 C 21.50796508789062 4.268026351928711 18.44667625427246 2.999996185302734 15.1904764175415 2.999996185302734 C 14.36204719543457 2.999996185302734 13.69047737121582 2.328426361083984 13.69047737121582 1.499996185302734 C 13.69047737121582 0.6715660095214844 14.36204719543457 -3.814697265625e-06 15.1904764175415 -3.814697265625e-06 C 15.1904764175415 -3.814697265625e-06 15.1904764175415 -3.814697265625e-06 15.1904764175415 -3.814697265625e-06 Z" stroke="none" fill="#0f466b"/>
      </g>
      <line id="Line_11" data-name="Line 11" x2="3.5" y2="3.5" transform="translate(0 11.596)" fill="none" stroke="#0f466b" stroke-linecap="round" stroke-width="3"/>
      <line id="Line_12" data-name="Line 12" x1="3.5" y2="3.5" transform="translate(4.5 11.596)" fill="none" stroke="#0f466b" stroke-linecap="round" stroke-width="3"/>
      <line id="Line_13" data-name="Line 13" y2="8" transform="translate(17.285 6.928)" fill="none" stroke="#0f466b" stroke-linecap="round" stroke-width="3"/>
      <line id="Line_14" data-name="Line 14" x1="4" transform="translate(17.4 15.19)" fill="none" stroke="#0f466b" stroke-linecap="round" stroke-width="3"/>
    </g>
  </g>
</svg>
